<?xml version="1.0" encoding="utf-8"?>
<!-- Generator: Adobe Illustrator 23.0.0, SVG Export Plug-In . SVG Version: 6.00 Build 0)  -->
<svg version="1.1" id="图层_1" xmlns="http://www.w3.org/2000/svg" xmlns:xlink="http://www.w3.org/1999/xlink" x="0px" y="0px"
	 viewBox="0 0 1154 116" style="enable-background:new 0 0 1154 116;" xml:space="preserve">
<g>
	<path d="M1000.1,20.1c2.7-2.3,5.9-3.5,9.5-3.2c3.7,0.3,6.2,2.7,6.5,6.4c0.3,3.4,0.1,6.7-3.8,8.3c-1.3,0.5-1.1,1.5,0.1,2.1
		c1.9,0.9,3.9,1.7,5.7,2.9c0.8,0.5,1.7,2,1.4,2.8c-0.2,0.8-1.7,1.4-2.7,1.6c-1.4,0.3-1.9,0.5-0.5,1.5c3.8,2.9,4.5,7.3,4.6,11.6
		c0.3,12,0.3,24,0.1,36c0,2.7-1,5.5-1.7,8.1c-0.7,2.5-1.4,5.1-2.3,7.5c-0.3,0.8-1.2,1.4-1.8,2.1c-0.7-0.8-2-1.5-2.1-2.3
		c-0.2-3.6-0.6-7.4,0-11c0.6-3.9,0.7-7.8,0.8-11.6c0.2-6.5,0.4-13-0.1-19.5c-0.4-6.1-1.1-12.2-0.8-18.3c0.1-2.2-1.4-3.4-3.6-2.9
		c-4.9,1-9.7,2.2-13.2,6.2c-0.7,0.7-1.4,1.4-2.2,2c-2.6,2.3-2.5,2.2-0.2,4.8c1.1,1.3,1.6,3.1,2.3,4.8c0.4,1,0.6,2.2,1.1,3.2
		c0.2,0.3,1.2,0.6,1.5,0.3c0.9-0.7,1.7-1.6,2.5-2.4c2.2-2.5,4.9-2.9,7.7-1.2c0.4,0.2,1,0.6,1,1c0.4,2.4,0.8,4.9,0.9,7.4
		c0.1,1.6-0.6,3.2-0.7,4.9c-0.1,1.5-1.1,2.2-2.2,2.3c-0.8,0-2-0.7-2.3-1.4c-0.8-1.8-1.1-3.8-1.7-5.6c-0.2-0.7-0.7-1.4-1.1-2.1
		c-0.5,0.4-1,0.7-1.5,1.1c-3.3,2.4-4,5.9-4.1,9.6c-0.1,2.5,0.1,5-0.1,7.5c-0.1,2-0.5,3.9-1.1,5.8c-0.6,1.9-2.4,2.4-4,1.2
		c-1-0.8-1.9-1.9-2.6-3c-2.9-4.2-5.7-8.5-8.6-12.7c-0.3-0.5-0.9-0.8-1.4-1.1c-0.1,0.5-0.2,1-0.3,1.4c-0.6,4.2-1.2,8.5-2,12.7
		c-0.4,2.5-2.4,3.2-4.1,1.5c-0.9-0.9-1.7-2.1-2-3.3c-0.7-2.7-1.2-5.4-1.6-8.2c-0.1-0.9,0.3-2.4,0.9-2.7c3.6-1.8,2.6-6.3,5.3-8.6
		c1.6-5.3,4.9-9.7,7.8-14.3c0.4-0.7,1-1.3,1.4-2.1c0.2-0.4,0.2-1,0-1.4c0-0.1-0.8-0.2-1.2-0.1c-1.7,0.5-3.4,1.1-5.1,1.7
		c-3,1.2-6,2.6-9.1,3.9c-3.3,1.4-4.5,0.7-4.6-3c-0.3-6.3-0.2-6.3,5.4-9c4.2-2,8.3-4,12.4-6.2c2.7-1.5,2.8-2.1,0.9-4.5
		c-0.8-1-1.9-1.8-3-2.5c-1.5-1-2.5-2.3-2-4.1c0.4-1.4,3.4-2.8,4.7-1.8c4.1,3.2,7.3,1,10.7-1.1c0.2-0.1,0.6,0,1,0
		c0,0-0.1-0.1-0.1-0.1c-1,2.7-2,5.3-3,8c-0.1,0.3-0.2,0.5-0.4,0.8c0.2-0.2,0.3-0.5,0.5-0.7c1.2-0.4,2.5-0.7,3.7-1.4
		c4.5-2.7,9.5-4.7,12.9-9c0.3-0.4,0.6-0.8,0.9-1.2c-0.6-0.2-1.2-0.5-1.7-0.4c-2.6,0.2-5.2,0.5-7.9,0.8
		C1000,19.9,1000.1,20.1,1000.1,20.1z M986.9,62.9c1.9,0,2.9,0.1,3.9,0c0.4,0,1-0.6,1-0.8c-0.3-1.2-0.7-2.5-1.4-3.6
		c-0.2-0.3-1.7,0.3-2.6,0.6c-0.4,0.2-0.8,0.5-1.2,0.9c-0.8,0.8-1.5,1.7-2.3,2.6C985.5,62.7,986.6,62.8,986.9,62.9z M990.9,78.2
		c-0.3-0.4-0.5-0.6-0.7-0.9c-0.7,0.6-1.4,1.2-1.9,1.9c-0.1,0.1,0.8,0.9,1.2,1.4C989.9,79.8,990.4,78.9,990.9,78.2z M1006.9,34.8
		c-0.5-0.3-0.7-0.6-0.9-0.5c-0.9,0.4-1.7,0.8-2.6,1.2c0.2,0.1,0.5,0.4,0.6,0.4C1005,35.5,1005.9,35.2,1006.9,34.8z M1001.7,36.5
		l-0.3-0.2l0,0.3L1001.7,36.5z"/>
	<path d="M349.1,64.2c1,5.2-2,10-4.1,14.9c-1.4,3.3-3.4,6.4-5.2,9.6c-0.3,0.6-0.6,1.2-1.1,1.7c-1.9,2.1-3.7,2-5.2-0.3
		c-0.5-0.8-0.9-1.8-1.3-2.7c-1-2.3-1.9-4.5-3-6.8c-0.3-0.6-1-1.1-1.5-1.6c-0.5,0.6-1.3,1.2-1.4,1.9c-0.6,4.3-2.6,8.1-4.3,12
		c-0.5,1.2-1.1,2.4-1.9,3.5c-2.5,3.4-4.8,3.3-6.5-0.7c-1-2.4-2.5-5.1-1.2-8c0.3-0.7-0.7-1.8,1-2c0.6-0.1,1.2-1.1,1.6-1.8
		c2.7-5.6,5.3-11.3,8-17c0.3-0.6,0.6-1.2,0.7-1.8c0.2-0.9-1-1.9-1.8-1.4c-4,2.2-8,4.6-11.9,6.9c-0.3,0.2-0.4,0.5-0.7,0.7
		c-5.6,2.9-6,8.3-6.1,13.6c-0.1,3.4,0.5,6.9,0.7,10.4c0.1,1.6,0,3.4-1.6,3.7c-1.2,0.2-3-0.5-3.9-1.5c-1.2-1.3-1.7-3.1-2.5-4.8
		c-1-2.1-2.1-4-5.1-3.8c-1.8,0.1-3-1.3-3.7-3c-0.5-1.1-0.8-2.2-1.3-3.2c-1.5-3.2-1.4-3.1,0.9-5.7c3.9-4.5,8.2-8.7,9.6-14.8
		c0.6-2.4,1.1-4.8,1.5-7.2c0.3-2-0.4-2.7-2.4-2.9c-0.8-0.1-1.7-0.1-2.5,0c-4.1,0.6-6.1-2.1-7.6-5.2c-1.6-3.3,0.1-7.4,3.4-8.7
		c0.2-0.1,1.2,0.7,1.2,0.9c-0.2,1.3-0.6,2.5-0.8,3.8c-0.2,1.1,0.2,1.9,1.6,1.9c3.3,0.1,6.3-1,8.6-3.1c1.2-1.1,2-1.9,3.7-2
		c2.2,0,4.3,0.2,6.1,1.6c1.4,1.1,2.7,2.5,3.9,3.9c1.9,2.3,1.6,5.1,0.4,7.5c-2,4.1-4.5,8-6.7,12.1c-0.2,0.4-0.2,0.9-0.4,1.3
		c0.4-0.1,0.8-0.2,1.2-0.4c4.9-3.3,9.7-6.9,14.8-9.9c4.6-2.7,9.5-5.2,15.1-5.1c3.3,0,6.2,1.5,8.6,3.3c1.7,1.3,3.3,3.3,3,6
		C349,61.3,349.1,62.5,349.1,64.2z M340.9,61.3c0.1-4.2-0.2-4.5-3.3-4.2c-1,0.1-1.9,0.5-2.9,0.6c-1.7,0.3-2.8,1-2.8,3.2
		c0,2.4-0.2,5.1-1.2,7.3c-1.2,2.6,0,4.6,0.8,6.6c0.9,2.3,2.7,2.4,3.9,0.2c1.7-3.2,3.1-6.5,4.5-9.9C340.5,63.6,340.7,61.9,340.9,61.3
		z M328.5,77.8l0.1-0.3l-0.2,0L328.5,77.8z"/>
	<path d="M62,70.1c-2.5,1.7-3.5,4.6-5.3,6.9c-4.4,5.8-8.8,11.5-16.4,13.6c-2.2,0.6-4.2,0.5-6.2-0.5c-0.8-0.4-0.9-0.8-0.4-1.4
		c2.4-3,4.6-6.1,7.1-9c6.3-7.5,12.7-14.8,19.1-22.2c0.7-0.8,0.6-1.3-0.1-2c-0.3-0.3-0.6-0.8-0.8-1.2c-1.8-3.3-1.6-3.6,1.7-5.9
		c2.3-1.6,4.4-3.5,6.5-5.3c0.2-0.1,0.2-0.5,0.2-0.7c-0.3,0-0.7-0.2-0.9-0.1c-2.4,1-4.8,2.2-7.2,3c-6.3,2.1-13.2-2-14.3-8.4
		c-0.3-1.4,0.2-2.3,1.7-3.1c5.5-3.1,11.5-4.7,17.7-5.8c3.4-0.6,6.9-1.1,10.3-0.9c2.5,0.1,5.3,0.8,7.5,2c4.6,2.3,5.3,6.8,1.9,10.6
		c-1.7,2-3.7,3.7-5.5,5.6c-1.9,2.1-3.6,4.1-3.6,7.3c0,1.5-0.6,3.5-1.7,4.5c-2.3,2.1-2.2,4.6-2.2,7.3c0,0.8,0,1.7,0,2.5
		c0,5.5,0.1,5.6,5.1,3.6c4.6-1.9,9.4-1.9,14.1-1.4c4.7,0.5,8.1,3.6,10.7,7.3c1.8,2.5,1,5.2-1.7,6.7c-2.4,1.3-5.1,1.4-7.7,0.9
		c-3.1-0.6-6.1-1.4-9.1-2c-1.8-0.3-0.6-1.2-0.3-1.6c1-1.2,0.7-2.1-0.6-2.8c-2.9-1.5-6-1.6-9.2-1.3c-0.4,0.1-1.1,0.8-1.2,1.3
		c-0.1,2,0,4,0.1,6c0.2,3.3,0.5,6.6,0.8,9.9c0.1,1.4,0,2.7-1.4,3.5c-1.3,0.7-4.2,0.6-5.1-0.7c-1.8-2.7-3.2-5.7-4.6-8.7
		c-0.2-0.5,0-1.6,0.4-1.8c2.3-1.3,1.6-3.5,1.5-5.3c-0.2-3.4,0.9-7-0.9-10.3c0.1,0,0.3-0.1,0.4-0.2c0.1-0.1,0.1-0.2,0.2-0.3
		C62.4,69.7,62.2,69.9,62,70.1z"/>
	<path d="M890,67.9c0.1-2.5,2.2-4,3.3-5.9c2-3.4,4.1-6.7,6-10.2c1.1-2,0.6-2.6-1.6-2.8c-2.8-0.3-4.6,0.6-5.9,3.3
		c-3.9,8.2-8.2,16.2-12,24.4c-1.4,2.9-1.9,6.3-2.8,9.4c-0.3,1.1-0.6,2.2-1.1,3.2c-0.2,0.3-1.1,0.4-1.7,0.3c-0.4-0.1-0.8-0.6-1.1-1
		c-0.5-0.8-1-1.7-1.5-2.5c-2.1-3.9-3.3-7.5,0.6-11.3c1.5-1.4,1.7-4.2,4.5-4.4c0.4,0,0.9-0.9,1.1-1.5c2.3-5.6,5.6-10.7,7.7-16.5
		c1.8-5,5.1-9.6,7.7-14.3c0.5-0.9,1.2-1.6,1.6-2.5c1.3-2.2,1.1-2.7-1.2-2.5c-2.9,0.2-5.1-1.1-7.3-2.6c-0.4-0.3-0.7-0.7-1-1.1
		c0.4-0.2,0.8-0.5,1.2-0.6c5.1-0.7,9.9-2.1,14.6-4.3c1.9-0.9,4.5-0.8,6.8-0.5c2.3,0.3,2.8,2.5,0.9,3.9c-5.5,4-8.4,10.1-12.5,15.3
		c-0.2,0.2-0.1,0.6-0.2,0.9c0.4,0,0.8,0,1.2-0.1c3.1-1.4,6.3-2.7,9.4-4.2c3.1-1.5,6.1-1.4,9,0.3c1.1,0.7,1,2.2-0.3,2.7
		c-1.4,0.5-2.8,0.8-4.3,1.2c-1.1,0.3-2.2,0.6-3.2,1c-2,0.7-1.9,2.7-2.2,4.2c-0.4,1.5,1.4,1.5,2.3,2c1.4,0.9,2.8,1.7,4.2,2.7
		c1.7,1.2,2.8,2.8,2.9,4.9c0.2,3.5,0.2,7-1.4,10.2c-2.4,4.7-5,9.3-7.6,13.9c-0.3,0.6-0.7,1.2-1.1,1.6c-2.1,2-3.9,1.6-4.7-1.2
		c-1-3.6-1.6-7.4-2.4-11c-0.2-0.7-0.8-1.4-1.2-2.1c-0.6,0.5-1.3,0.9-1.8,1.5c-0.6,0.8-1.1,1.7-1.5,2.5c-0.4,0.7-0.5,1.6-1,2.2
		c-1.2,1.5-2.6,2.8-3.9,4.2c-1.1-2-2.9-3.9-3.1-5.9c-0.2-1.5,1.8-3.2,2.8-4.8c0,0-0.1-0.1-0.1-0.1c0.3,0.9,0.6,1,1,0.1
		c0,0,0.1-0.1,0.1-0.1c0.3-0.3,0.6-0.6,0.9-0.9c0,0,0.1-0.1,0.1-0.1C890.9,68.4,890.9,68.1,890,67.9L890,67.9z M898.7,66.8
		c0.6,1.7,1,3.2,1.7,4.7c0.5,1.1,1.2,1.4,2.1,0.2c2.6-3.2,4.5-6.8,5.8-10.7c0.7-2.1-0.5-5-2.4-6.2c-1.3-0.8-2.1-0.5-2.7,0.8
		c-0.6,1.2-1.3,2.3-1.7,3.5C900.5,61.6,899.7,64.2,898.7,66.8z"/>
	<path d="M754.1,60c0,3.2,0,6.3,0,9.5c0,1.2,0.8,1.4,1.6,0.8c3.3-2.7,7.2-4.8,9.7-8.4c0.2-0.4,0.4-1,0.2-1.4
		c-0.2-0.3-0.9-0.5-1.3-0.5c-2.1,0.2-4.2,0.8-6.3,0.8c-1.7,0-2.2-1.1-1.2-2.6c1-1.5,2.2-2.9,3.3-4.3c2.1-2.8,2.1-3.1,0.4-6.1
		c-1.1-2-2.1-4.1-3.2-6.2c-0.8-1.5,0.1-2.2,1.3-2.6c1.7-0.6,3.5-0.3,4.7,0.9c1.6,1.7,3.3,1.3,4.9,0.7c5.7-2,6.8-0.5,7,4.8
		c0.1,3.5-0.8,6.7-3.3,9c-1.9,1.8-1.5,3.3-0.8,5.2c2.7,6.7,6,13.2,10.4,19c0.7,0.9,1.7,2.1,2.5,2c1.4-0.1,1.8-1.6,2-3
		c0.1-0.6,0.5-1.2,0.8-1.8c0.5-1,0.7-0.6,1.2,0.1c2.5,3.5,4.7,7.2,5.7,11.4c0.8,3.1-0.9,5.9-3.6,7.1c-1.8,0.8-2.9-0.3-4.1-0.9
		c-3.7-2-6.2-5.4-8.4-8.9c-2-3.2-3.9-6.5-5.8-9.8c-0.7-1.1-1.3-2.3-2.1-3.3c-0.6-0.8-1.4-0.8-2,0.1c-0.3,0.4-0.5,0.8-0.8,1.3
		c-1,1.5-1.9,3.1-2.9,4.6c1.5,0.9,3.1,1.7,4.5,2.8c1.1,0.8,2.7,1.5,2,3.5c-0.9,2.3-1.7,3.3-3.8,3.1c-1.9-0.2-4-0.6-5.6-1.5
		c-2.8-1.7-5.4-1.5-7.8,0.3c-2.1,1.5-4.4,1.5-6.6,1.3c-3.4-0.2-4.6-2.6-2.7-5.4c1.3-1.9,2.8-3.7,4.3-5.5c1.2-1.3,1.5-2.8,1.5-4.6
		c-0.1-6.8,0-13.6,0-20.5c0-1.2-0.2-2.4,0.1-3.5c0.2-0.9,0.9-1.7,1.4-2.5c0.6,0.7,1.4,1.4,1.6,2.2c0.5,1.9,0.9,3.8,1,5.8
		C754.2,55.3,754.1,57.7,754.1,60C754.1,60,754.1,60,754.1,60z"/>
	<path d="M159.9,78.9c0.2-4.8,1.9-9.3,6.6-12.2c0.8-0.5,1.6-1.3,2.5-1.7c2-1,2.2-2.6,1.9-4.6c-0.4-2.4-0.6-4.9-0.8-7.4
		c-0.1-0.8,0-1.7,0.3-2.4c0.7-1.6,1.3-3.5,3.4-4c-1.1-1.4-2.4-2.7-3.4-4.2c-0.9-1.4-0.2-2.8,1.4-3.5c2.4-1.1,5.2-1.6,6.2-4.5
		c0.5-1.3,1.3-2.4,0.5-4.2c-1-2.1-0.4-3.1,1.9-3.7c1.8-0.5,3.9-0.4,5.8-0.1c1.4,0.2,2.8,1,4,1.9c2.5,1.8,5.1,2.9,8.3,2.7
		c1.5-0.1,3.2,0.6,4.6,1.4c1.5,0.8,1.6,2.6,0.4,3.8c-1.2,1.2-2.5,2.1-3.9,3c-2.3,1.3-4.6,2.6-7,3.6c-1.6,0.7-2.7,1.3-3.4,3.2
		c-0.6,1.8-2.6,2.3-4.5,1.8c-0.5-0.1-0.9-0.5-1.3-0.6c-1.4-0.3-3-0.1-3.5,1.2c-0.2,0.7,0.8,2,1.6,2.8c0.4,0.4,1.5,0.4,2.2,0.2
		c2.5-0.9,4.8-2.2,7.4-2.8c2.4-0.6,4.9-0.9,7.3-0.6c1.6,0.2,3.3,1.5,4.5,2.7c1.4,1.4,0.9,3.3-0.9,4.6c-0.8,0.6-1.6,1.2-2.6,1.5
		c-6,2.4-11.9,4.8-17.9,6.9c-2.6,0.9-5.4,1.4-8.1,1.4c-1.9,0-3.6,0.6-4.2,1.9c-1.6,3.2-3.5,6.3-2.1,10.3c0.9,2.8,1.3,5.8,1.4,8.7
		c0.2,3-0.2,3.2-3,4.3c-1.1,0.5-1.7,0.5-2.3-0.7C161.1,86.4,160,83,159.9,78.9z"/>
	<path d="M724.9,57.8c1.8,1.4,2.3-0.2,2.7-1.3c1.3-3.4,2.2-6.9,3.7-10.1c0.9-1.9,0-2.1-1.3-2.9c-1.1-0.6-2.2-1.5-2.9-2.6
		c-0.6-0.9-1.1-2.2-0.9-3.2c0.1-0.7,1.4-1.2,2.1-1.8c3.1-2.4,6.3-4.8,9.4-7.2c1.2-0.9,2.3-1.2,3.7-0.3c0.7,0.5,1.4,0.8,2.2,1.2
		c4.8,2.7,6.6,8.7,1.9,13.3c-2.8,2.7-3.7,6.1-4.4,9.7c-0.3,1.5,0.5,1.5,1.8,1.8c3.5,0.7,4.5,2,4.1,5.5c-0.3,3.1-0.7,6,0,9.1
		c0.5,2.2-0.3,4.2-2.2,5.7c-1,0.8-1.9,1.9-2.9,2.7c-2.2,1.7-4.4,3.4-5.8,5.9c-1.1,1.9-2.4,1.8-4.1,0.3c-0.7-0.7-1.5-1.4-1.9-2.3
		c-0.5-1.2-1-0.8-1.8-0.3c-1.3,1-2.6,2.2-4.1,2.7c-2.5,1-4.4-0.3-4.4-2.9c0-1.6,0.4-3.2,0.7-4.8c0.2-1,0.8-1.8,1.2-2.7
		c1.6-4,2.9-7.9,0.6-12.3C721.2,58.5,722.1,57.7,724.9,57.8z M735.2,71.5c0,0,0.2,0.6,0.4,1.2c0.7-0.4,1.6-0.6,1.9-1.1
		c0.8-1.6,1.4-3.3,2-4.9c0.1-0.4-0.1-1.2-0.5-1.5c-0.2-0.2-1.1-0.1-1.3,0.2C736.3,66.8,734.8,68.4,735.2,71.5z"/>
	<path d="M1084.9,74.7c0-1.5,0-3.1,0-4.6c-2.4-0.5-3.6,1.3-5.1,2.6c-0.5,0.4-1,0.9-1.5,1.4c-1.2,1.2-2.6,1.5-4.1,0.8
		c-1.7-0.8-1.6-2.5-1.3-3.9c0.1-0.9,0.6-2,1.3-2.6c5.6-4.9,9.7-11.2,14.5-16.7c0.8-0.9,1.6-1.8,0.9-3.1c-0.7-1.3,0.1-1.6,1-1.3
		c1.7,0.6,3.3,1.3,5,2.1c1,0.5,2.1,1,2.9,1.8c0.9,0.9,1.6,0.5,2.6,0.2c8.6-3.2,17.3-6.2,26-9.3c0.6-0.2,1.3-0.3,1.9-0.6
		c3.8-2.6,6.9-0.6,10,1.4c1.3,0.9,1.1,2.5-0.5,3c-3.4,1.2-6.9,2.1-10.3,3.2c-0.5,0.1-1.1,0-1.5,0.2c-1.5,0.7-2.9,1.5-4.4,2.2
		c0.7,1.3,1.4,2.5,2,3.8c0.6,1.3,1.4,2.7,1.5,4.1c0.5,7.9,1,15.9,1,23.8c0,2.3-1.3,4.7-2.5,6.8c-0.9,1.6-2.7,2.3-4.8,1.9
		c-2.1-0.4-4.2-0.6-6.2-0.9c-0.4-0.1-0.8-0.4-1.2-0.5c0.3-0.4,0.5-0.9,0.8-1.2c0.3-0.4,0.8-0.7,1.2-0.9c5.9-2.4,7.3-7.5,7.7-13.2
		c0.4-6.8-0.3-13.6-1-20.4c-0.3-2.6-1.2-3.2-3.5-2.6c-3.5,0.9-7,1.9-10.5,2.7c-1.2,0.3-2.5,0.7-3.7,0.5c-1.7-0.3-3-3.1-4.6-1.9
		c-1,0.7-0.4,3.4-0.9,5.1c-2.1,7.1-2.5,14.6-3.6,21.9c-0.4,2.7-1.1,4.1-2.5,4.3c-1.4,0.1-5.4-1.8-5.8-3c-0.6-2.4-0.9-4.8-1.3-7.2
		C1084.7,74.7,1084.8,74.7,1084.9,74.7z"/>
	<path d="M201.8,92.6c-4.8-0.5-9.6-0.8-14.3-1.6c-5.7-1-12.7-9.3-13.1-16.4c0-0.5,0.3-0.9,0.5-1.4c0.3-1,0.8-0.9,1.3-0.3
		c2.2,2.5,4.5,4.9,6.7,7.4c3.1,3.5,7,4.8,11.5,4.7c3.5-0.1,7,0.2,10.3-1c1.4-0.5,1.5-1.7,0.9-2.3c-2.5-2.6-5-5.3-7.9-7.5
		c-1.8-1.3-4.1-1.7-6.5-0.3c-1.6,0.9-3.8,0.9-5.7,1.2c-1.9,0.3-3.2-0.8-4.2-2.1c-1.8-2.5-1.5-3.4,1.5-4.4c9.3-3.1,18.7-6.2,28.1-9
		c3.3-1,6.8-1.3,10.2-1.6c1.5-0.1,3.3,0.5,4.6,1.3c2.1,1.3,2,4-0.2,5.3c-2.3,1.3-4.6,2.6-7.1,3.3c-3.7,1.1-7.6,1.8-11.5,2.6
		c-0.6,0.1-1.2,0.1-1.8,0.1c0.2-0.4,0.4-0.9,0.7-1.3c1-1.3,2.1-2.6,3.1-3.9c0.5-0.7,0.9-1.4,1.4-2.2c-0.9,0.2-2,0.1-2.8,0.6
		c-2.8,1.4-5.5,2.9-8.1,4.5c-0.4,0.3-0.9,1.1-0.8,1.5c0.2,0.5,0.9,0.9,1.5,1c6.6,1.3,12.3,4.5,17.8,8c1,0.6,1.9,1.4,2.7,2.2
		c3.9,3.9,2.2,7.1-1.7,8.9c-2.7,1.3-6,1.7-9.1,2c-2.6,0.3-5.3,0.1-8,0.1C201.8,92.3,201.8,92.5,201.8,92.6z"/>
	<path d="M863,66c0,1.5,0.1,3,0,4.5c0,0.5-0.6,1.2-1,1.3c-0.5,0.1-1.5-0.1-1.8-0.5c-1.8-2.6-3.8-5-3.7-8.4c0-1.3-0.7-0.9-1.1-0.6
		c-0.8,0.8-1.5,1.7-2.2,2.6c-3.7,4.9-7.3,9.8-10.9,14.8c-1,1.4-1.6,1.2-2.7,0.3c-2.6-2.1-2.3-5.3-3.3-8c-0.2-0.5,0.7-1.8,1.5-2.3
		c5.8-3.7,8.7-9.7,12.7-14.9c0.4-4.1,3-7.2,4.9-10.6c0.6-1,0.6-1.6,0-2.6c-1.3-2.3-2.4-4.7-3.4-7.1c-0.3-0.7-0.7-2-0.4-2.1
		c1-0.7,2-1.9,3.5-1c0.8,0.5,1.8,0.8,2.5,1.5c1.5,1.6,3.4,1.6,5,0.8c4.3-2.1,8.1-0.4,11.8,1.3c2.3,1,2.3,2.7,0.3,4.1
		c-1,0.8-2.2,1.5-3.4,1.9c-2.6,0.9-4.5,2.7-6,5c-1.8,2.9-3.7,5.8-5.5,8.7c-0.7,1-0.4,1.8,0.4,2.6c0.9,0.9,1.7,0.7,2.7,0.2
		c1.7-0.9,3.4-2,5.3-2.4c2.6-0.7,4.9,0.3,6.7,2.3c1,1.1,1.5,2.3,0.7,4c-1.4,2.9-2.6,5.7-5.1,7.8c-1.4,1.2-2.2,1.1-3.3-0.4
		c-2-2.6-2.9-5.2-0.3-8c0.4-0.4,0.5-1,0.7-1.6c-0.7-0.1-1.3-0.2-2-0.2c-1.6,0-2.4,1-2.5,2.5C862.9,63,863,64.5,863,66
		C863.1,66,863,66,863,66z"/>
	<path d="M428.8,81.1c-10.4,0-17.1-4.7-21.2-15.1c-0.7-1.8-1-3.7-1.4-5.6c1.7,1.1,3.6,2.1,5.1,3.4c1.2,1.1,2.2,2.5,3,3.9
		c2.9,5.6,10.4,8.3,15.6,6.8c3.3-0.9,6.7-1.7,10-2.6c1.5-0.4,1.2-1.4,0.2-2.1c-5.6-3.7-11.3-7.5-17-11.1c-1.2-0.8-2.7-1.2-4.1-1.7
		c-0.9-0.4-2-0.6-2.6-1.2c-1-1-2.1-2.3-2.3-3.5c-0.1-0.6,1.7-1.9,2.8-2.3c6.5-2.2,12.9-4.7,19.8-5.9c3.1-0.5,6,0,8.8,1
		c2,0.7,2.7,2.8,3.3,4.7c0.1,0.4-0.8,1.3-1.5,1.6c-3.9,1.9-7.4,4.3-10.2,7.5c-1.5,1.7-1.4,2.3,0.7,3.1c3.5,1.4,7.1,2.5,10.6,4
		c2.7,1.2,5.6,2,7,5.1c0.7,1.5,0.7,2.5-0.5,3.5c-0.7,0.6-1.6,1.2-2.5,1.5C444.7,78.7,437,81.1,428.8,81.1z M438,47.1
		c-3.9,0.3-7.8,1-11.1,3.5c-2.8,2.1-2.6,5,0.3,6.9c1.8,1.2,3.7,2,5.7,2.9c0.4,0.2,1.4-0.1,1.6-0.4c2.1-3.7,4.1-7.5,6.1-11.2
		c0.5-1-0.2-1.5-1.1-1.6C439,47.1,438.5,47.1,438,47.1z"/>
	<path d="M1096.1,36.6c0,0.3,0,0.7,0,1c-0.1,1.6,0.4,3.7-0.4,4.8c-0.8,1.1-3.1,0.9-4.4,1.9c-2.7,2.1-6.3,2.2-8.6,5.3
		c-1.5,2-4.2,3.1-7.1,2.6c-1.2-0.2-1.7-0.8-1.8-1.9c-0.3-2.2,0.7-4,2-5.4c4.4-4.6,7.6-10,10.9-15.3c1.6-2.6,4-4.1,5.5-3.4
		c2.3,1.2,3.9,3.1,3.8,5.9C1096,33.6,1096.1,35.1,1096.1,36.6C1096.1,36.6,1096.1,36.6,1096.1,36.6z"/>
	<path d="M401.1,67.8c0,0.8-0.1,1.7,0,2.5c0.3,2.3-1,3.8-2.9,4.7c-1.2,0.6-2.4,0.9-3.7,1.4c-2.6,0.9-5.3-0.9-5.6-3.5
		c-0.7-5.5,1.2-10,5.2-13.7c2.8-2.5,5-1.8,6,1.8c0.6,2.2,0.9,4.5,1.3,6.7C401.3,67.8,401.2,67.8,401.1,67.8z"/>
	<path d="M774.3,27.4c0.1,4.3-2.9,6.5-6.3,8.1c-3.5,1.7-7,1.1-10.1-1.3c-1.4-1.1-1.5-2.3,0-3.7c2.9-2.7,5.8-5.4,8.9-7.9
		c1.2-0.9,2.5-2.3,4.4-1.3c2.1,1.1,2.8,3.1,3.3,5.2C774.6,26.7,774.4,27,774.3,27.4z"/>
	<path d="M1115,40c2.1-5.5,2.1-5.5-2.7-10.1c-0.6-0.6-1.1-1.3-1.6-2c0.9-0.3,1.7-0.9,2.6-1c3.8-0.2,7.5,0.7,11.1,2
		c1.2,0.4,2.4,1.2,3.2,2.2c0.4,0.5,0.4,2.2-0.1,2.6c-1.7,1.3-3.6,3-5.5,3.2C1119.1,37,1117.3,38.9,1115,40L1115,40z"/>
	<path d="M297.1,17.7c4.4,2,9.4,3.1,12.6,7.2c2.3,3.1,2,4.2-1.6,5.2c-2,0.5-4.2,0.7-6.3,1.1c-1.3,0.2-2.6,0.5-3.8,0.7
		c-0.2,0-0.5-0.2-0.7-0.4c0,0,0.1-0.3,0.2-0.4c1.1-1.1,2.2-2.1,3.2-3.1c1.8-1.8,1.8-1.9,0.1-3.6c-1.5-1.5-3.1-3-4.6-4.6
		c-0.3-0.3-0.5-0.8-0.8-1.2C295.8,18.2,296.3,18,297.1,17.7z"/>
	<path d="M998.1,21.1c0.7-0.3,1.3-0.7,2-1c0,0-0.1-0.1-0.1-0.1c-0.7,0.3-1.3,0.7-2,1C997.9,20.9,998.1,21.1,998.1,21.1z"/>
	<path d="M995,23c0.7-0.3,1.4-0.6,2-1c0,0-0.1-0.1-0.1-0.1C996.3,22.3,995.6,22.6,995,23C995,23,995,23,995,23z"/>
	<path d="M1115,40c-0.3,0.3-0.7,0.7-1,1c0,0,0.1,0.1,0.1,0.1C1114.4,40.7,1114.7,40.4,1115,40L1115,40z"/>
	<path d="M1114,41c-0.3,0.3-0.7,0.6-1,1c0,0,0.1,0.1,0.1,0.1C1113.4,41.7,1113.7,41.4,1114,41C1114,41,1114,41,1114,41z"/>
	<path d="M1113,41.9c-0.1,0.2-0.3,0.4-0.4,0.6c0.1-0.1,0.1-0.2,0.2-0.3c0.1-0.1,0.3-0.1,0.4-0.2C1113.1,42,1113,41.9,1113,41.9z"/>
	<path d="M997.1,22.1c0.3-0.3,0.7-0.7,1-1c0,0-0.1-0.1-0.1-0.1c-0.3,0.3-0.7,0.7-1,1C997,21.9,997.1,22.1,997.1,22.1z"/>
	<path d="M855,68.8c0.3-0.3,0.7-0.7,1-1c0,0-0.1-0.1-0.1-0.1c0,0.3,0.1,0.7,0.1,1c0,0-0.1,0.1-0.1,0.1
		C855.6,68.9,855.3,68.9,855,68.8C855,68.8,855,68.8,855,68.8z"/>
	<path d="M294.1,34c0.2-0.2,0.3-0.4,0.5-0.5c-0.1,0.1-0.1,0.2-0.2,0.3c-0.1,0.1-0.3,0.1-0.4,0.2C293.9,33.9,294.1,34,294.1,34z"/>
	<path d="M854,69.9c0.3-0.3,0.7-0.7,1-1c0,0,0,0,0,0c0.1,0.3,0.1,0.7,0,1l-0.1,0.1C854.6,69.8,854.3,69.8,854,69.9
		C854,69.8,854,69.9,854,69.9z"/>
	<path d="M271.8,72.5c-0.1,0.1-0.2,0.2-0.3,0.2c-0.1,0-0.2-0.2-0.3-0.3c0.1-0.1,0.2-0.2,0.3-0.2C271.6,72.2,271.7,72.4,271.8,72.5z"
		/>
	<path d="M293.9,33.9c-0.3,0.3-0.7,0.7-1,1c0,0,0.1,0.1,0.1,0.1c0.3-0.3,0.7-0.7,1-1C294.1,34,293.9,33.9,293.9,33.9z"/>
	<path d="M293,34.9c-0.2,0.2-0.3,0.4-0.5,0.6c0.1-0.1,0.1-0.2,0.2-0.2c0.1-0.1,0.3-0.1,0.4-0.2C293.1,35,293,34.9,293,34.9z"/>
	<polygon points="221.4,79.6 221.3,79.4 221.6,79.5 	"/>
</g>
<g>
	<path d="M560.8,80.1c-1-0.9-1.9-1.7-2.9-2.6c-0.8-0.7-1.5-1.5-2.2-2.2c-0.3-0.3-0.3-0.5-0.1-0.8c1.3-1.7,2.6-3.4,3.9-5.1
		c0.3-0.4,0.5-0.2,0.8,0c1.7,1.1,3.4,2.3,5.1,3.3c4.1,2.4,8.5,4.2,13.2,4.8c4.8,0.6,9.4,0,13.8-1.8c1.5-0.6,2.9-1.4,4.3-2.1
		c0.2-0.1,0.3-0.2,0.6-0.4c-8.2-6.8-16.3-13.5-24.4-20.3c-1.9,2.2-3.7,4.4-5.6,6.6c-3.5-3.1-7-6.1-10.5-9.2c1-1.2,2-2.4,2.9-3.5
		c3.7-4.4,7.3-8.7,11-13.1c0.4-0.4,0.7-0.6,1.2-0.5c2.5,0.2,4.9,0.1,7.2-1c0.9-0.5,1.7-1.1,2.5-1.7c0.2-0.2,0.4-0.3,0.7-0.1
		c1.8,1.4,3.6,2.7,5.5,4.1c0.1,0,0.1,0.1,0.3,0.2c-0.9,1.1-1.7,2.1-2.5,3.1c-1.4,1.8-2.9,3.6-4.3,5.4c-0.3,0.4-0.2,0.6,0.1,0.8
		c2.9,2.5,5.8,5,8.8,7.5c4.1,3.5,8.2,7,12.2,10.5c0.7,0.6,1.5,1.3,2.3,2c0.2-0.6,0.3-1.2,0.4-1.7c0.7-3.8,1.1-7.7,0.8-11.6
		c-0.5-7.1-3.1-13.2-8-18.4c-3.7-3.9-8.2-6.6-13-8.9c-0.9-0.4-1.8-0.8-2.7-1.2c-0.1,0-0.1-0.1-0.2-0.2c0.5,0,0.8-0.1,1.2-0.1
		c6-0.2,11.6,1.2,16.8,4.1c5.9,3.3,10.4,7.8,13.7,13.6c2.4,4.1,3.9,8.5,4.4,13.2c0.7,5.6,0,11.1-2.1,16.4c-0.3,0.7-0.6,1.5-1,2.2
		c-0.2,0.4-0.1,0.6,0.2,0.9c2.1,1.9,4.1,3.8,6.3,5.8c-2.5,2.9-5,5.8-7.6,8.7c-1-0.8-1.9-1.6-2.8-2.4c-1-0.9-2.1-1.8-3.1-2.7
		c-0.3-0.3-0.6-0.1-0.9,0c-3,1.8-6.1,3.3-9.3,4.6c-5,2-10.2,3-15.7,2.7c-4.5-0.3-8.7-1.4-12.7-3.5c-1.3-0.7-2.6-1.5-3.9-2.2
		c-0.2-0.1-0.3-0.2-0.5-0.3c1,4.3-1.3,7.2-4,7.6c-3.7,0.5-6.1-1.5-6.5-4.5c-0.3-1.8,0.3-3.4,1.6-4.6c1.3-1.2,2.9-1.6,4.7-1.4
		C560.8,80.2,560.8,80.2,560.8,80.1z"/>
</g>
</svg>
