<?xml version="1.0" encoding="utf-8"?>
<!-- Generator: Adobe Illustrator 23.0.0, SVG Export Plug-In . SVG Version: 6.00 Build 0)  -->
<svg version="1.1" id="图层_1" xmlns="http://www.w3.org/2000/svg" xmlns:xlink="http://www.w3.org/1999/xlink" x="0px" y="0px"
	 viewBox="0 0 204 150" style="enable-background:new 0 0 204 150;" xml:space="preserve">
<g>
	<path d="M39.6,119.6c-5.5,0-11-0.1-16.5,0c-3.4,0.1-4.7-1.4-4.8-4.8c-0.5-11.7-0.6-11.6,11.1-11.6c5.2,0,10.3,0,15.5,0
		c5.4,0,10-1.9,13.8-5.9c5.8-6.2,11.8-12.2,17.6-18.4c13-13.5,26-27.1,39-40.7c3.4-3.6,7.3-5.4,12.4-5.2c7,0.2,14,0,21,0
		c3.9,0,5.9-1.6,5.6-5.7c-0.1-2.7,0-5.3,0-8c0-2.2,0.6-3.4,2.8-1.5c8.3,7.1,16.7,14.3,25.1,21.4c1.8,1.5,1.8,2.9-0.1,4.5
		c-8.3,7-16.4,14.1-24.7,21.1c-0.7,0.6-1.7,0.8-2.5,1.2c-0.2-0.9-0.6-1.9-0.6-2.8c-0.1-2.8-0.1-5.7-0.1-8.5c0-3.3-1.4-4.9-4.8-4.9
		c-5.7,0.1-11.4-0.6-16.9,0.3c-3.6,0.6-7.6,2.7-10.2,5.4c-14,14-27.6,28.5-41.3,42.7c-5,5.2-10,10.3-14.8,15.6
		c-3.8,4.2-8.2,6.5-14.1,6C48,119.3,43.8,119.6,39.6,119.6C39.6,119.6,39.6,119.6,39.6,119.6z"/>
	<path d="M112.1,87.8c0.9,0.6,1.6,0.9,2.2,1.4c0.8,0.6,1.6,1.3,2.1,2.1c8,12.2,20,12.8,32.7,11.8c3.5-0.3,5.2-1.7,5.1-5.3
		c-0.1-3,0-6,0.1-9c0.1-2.3,1-2.7,2.7-1.2c8.3,7.1,16.7,14.3,25.1,21.4c1.8,1.6,1.8,3,0.1,4.5c-8.5,7.2-16.9,14.5-25.4,21.7
		c-1.5,1.3-2.4,0.8-2.4-1.1c-0.1-3,0-6-0.1-9c-0.2-4.8-0.8-5.5-5.6-5.6c-7.2-0.1-14.3-0.2-21.5,0c-4.1,0.1-7.5-1.1-10.4-4
		c-4.3-4.4-8.5-8.9-12.9-13.2c-2.5-2.5-2.4-4.9,0.1-7.3c1.8-1.7,3.4-3.6,5.2-5.3C110.1,89.1,111.1,88.5,112.1,87.8z"/>
	<path d="M19.3,40.9c0-7.5,0.3-7.8,8-7.8c9.8,0,19.6,0.1,29.5,0c4.5-0.1,8,1.5,11,4.8c3.9,4.3,7.9,8.5,12.1,12.6
		c2.5,2.4,2.4,4.5,0,6.7c-1.7,1.6-3.2,3.3-4.9,5c-3.7,3.6-4.9,4-7.9-0.4c-7-10.3-16.5-13.6-28.5-12.2c-4.1,0.5-8.3,0.1-12.5,0.1
		c-6.4,0-6.7-0.4-6.8-6.8C19.3,42.2,19.3,41.5,19.3,40.9z"/>
</g>
</svg>
